<svg width="18" height="15" viewBox="0 0 18 15" fill="none" xmlns="http://www.w3.org/2000/svg">
<path d="M17.25 0.757542C16.5318 1.26415 15.7366 1.65162 14.895 1.90504C14.4433 1.38567 13.843 1.01756 13.1753 0.850486C12.5075 0.683412 11.8046 0.725439 11.1616 0.970882C10.5185 1.21633 9.96633 1.65334 9.57974 2.22283C9.19314 2.79232 8.99077 3.46679 9 4.15504V4.90504C7.68197 4.93922 6.37596 4.6469 5.19826 4.05413C4.02056 3.46135 2.75774 2.04986 2 0.970882C2 0.970882 -0.75 8.25754 6 11.2575C4.4554 12.306 2.61537 12.8317 0.75 12.7575C7.5 16.5075 15.75 12.7575 15.75 4.13254C15.7493 3.92363 15.7292 3.71524 15.69 3.51004C16.4555 2.75516 16.9956 1.80208 17.25 0.757542Z" stroke="#FAFAFA" stroke-width="1.5" stroke-linecap="round" stroke-linejoin="round"/>
</svg>
