<svg aria-hidden="true" style="position: absolute; width: 0; height: 0; overflow: hidden;" version="1.1" xmlns="http://www.w3.org/2000/svg" xmlns:xlink="http://www.w3.org/1999/xlink">
<defs>
<symbol id="icon-instagram" viewBox="0 0 30 32">
<path fill="#fafafa" style="fill: var(--color1, #fafafa)" d="M23.252 6.087c-0.36 0-0.711 0.107-1.011 0.307s-0.532 0.484-0.67 0.816c-0.138 0.332-0.174 0.698-0.103 1.051s0.243 0.677 0.498 0.931c0.254 0.254 0.579 0.428 0.931 0.498s0.719 0.034 1.051-0.104c0.332-0.138 0.616-0.371 0.816-0.67s0.307-0.651 0.307-1.011c0-0.482-0.192-0.945-0.533-1.286s-0.804-0.533-1.286-0.533zM30.225 9.755c-0.029-1.258-0.265-2.502-0.697-3.683-0.385-1.011-0.985-1.926-1.758-2.683-0.751-0.777-1.668-1.373-2.683-1.743-1.178-0.445-2.424-0.686-3.683-0.712-1.607-0.091-2.122-0.091-6.245-0.091s-4.638 0-6.245 0.091c-1.259 0.026-2.505 0.267-3.683 0.712-1.013 0.374-1.93 0.969-2.683 1.743-0.777 0.751-1.373 1.668-1.743 2.683-0.445 1.178-0.686 2.424-0.712 3.683-0.091 1.607-0.091 2.122-0.091 6.245s0 4.638 0.091 6.245c0.026 1.259 0.267 2.505 0.712 3.683 0.37 1.015 0.966 1.932 1.743 2.683 0.753 0.774 1.67 1.369 2.683 1.743 1.178 0.445 2.424 0.686 3.683 0.712 1.607 0.091 2.122 0.091 6.245 0.091s4.638 0 6.245-0.091c1.259-0.026 2.505-0.267 3.683-0.712 1.015-0.37 1.932-0.966 2.683-1.743 0.776-0.754 1.377-1.67 1.758-2.683 0.432-1.181 0.668-2.426 0.697-3.683 0-1.607 0.091-2.122 0.091-6.245s0-4.638-0.091-6.245zM27.496 22.063c-0.011 0.962-0.185 1.915-0.515 2.819-0.242 0.66-0.631 1.256-1.137 1.743-0.492 0.501-1.086 0.889-1.743 1.137-0.904 0.33-1.857 0.504-2.819 0.515-1.516 0.076-2.077 0.091-6.063 0.091s-4.547 0-6.063-0.091c-0.999 0.019-1.994-0.135-2.941-0.455-0.628-0.261-1.195-0.648-1.667-1.137-0.503-0.487-0.887-1.083-1.122-1.743-0.37-0.917-0.575-1.892-0.606-2.88 0-1.516-0.091-2.077-0.091-6.063s0-4.547 0.091-6.063c0.007-0.984 0.186-1.958 0.531-2.88 0.267-0.64 0.676-1.21 1.197-1.667 0.46-0.521 1.030-0.935 1.667-1.213 0.924-0.333 1.898-0.508 2.88-0.515 1.516 0 2.077-0.091 6.063-0.091s4.547 0 6.063 0.091c0.962 0.011 1.915 0.185 2.819 0.515 0.689 0.256 1.307 0.671 1.804 1.213 0.497 0.466 0.885 1.035 1.137 1.667 0.337 0.923 0.511 1.897 0.515 2.88 0.076 1.516 0.091 2.077 0.091 6.063s-0.015 4.547-0.091 6.063zM15.158 8.224c-1.537 0.003-3.039 0.462-4.316 1.318s-2.271 2.072-2.857 3.493c-0.586 1.421-0.738 2.984-0.436 4.492s1.044 2.892 2.132 3.978 2.474 1.825 3.982 2.124c1.508 0.299 3.071 0.144 4.491-0.445s2.634-1.586 3.487-2.864c0.854-1.278 1.309-2.781 1.309-4.318 0.002-1.023-0.198-2.036-0.589-2.982s-0.965-1.804-1.689-2.527c-0.724-0.723-1.584-1.295-2.53-1.684s-1.96-0.587-2.983-0.583zM15.158 21.048c-0.998 0-1.974-0.296-2.804-0.851s-1.477-1.343-1.859-2.265c-0.382-0.922-0.482-1.937-0.287-2.916s0.675-1.879 1.381-2.584c0.706-0.706 1.605-1.187 2.584-1.381s1.994-0.095 2.916 0.287c0.922 0.382 1.711 1.029 2.265 1.859s0.851 1.806 0.851 2.804c0 0.663-0.131 1.319-0.384 1.932s-0.626 1.169-1.094 1.638c-0.469 0.469-1.025 0.841-1.638 1.094s-1.269 0.384-1.932 0.384z"></path>
</symbol>
<symbol id="icon-twiter" viewBox="0 0 15 32">
<path fill="#fafafa" style="fill: var(--color1, #fafafa)" d="M12.15 6.357h2.612v-4.591c-1.265-0.137-2.535-0.204-3.807-0.202-3.779 0-6.364 2.396-6.364 6.785v3.782h-4.266v5.139h4.266v13.166h5.113v-13.166h4.252l0.639-5.139h-4.891v-3.277c0-1.516 0.389-2.497 2.445-2.497z"></path>
</symbol>
<symbol id="icon-facebook" viewBox="0 0 38 32">
<path fill="none" stroke="#fafafa" style="stroke: var(--color1, #fafafa)" stroke-linejoin="round" stroke-linecap="round" stroke-miterlimit="4" stroke-width="3.2" d="M36.8 1.601c-1.532 1.081-3.229 1.907-5.024 2.448-0.964-1.108-2.244-1.893-3.669-2.25s-2.924-0.267-4.296 0.257c-1.372 0.524-2.55 1.456-3.375 2.671s-1.256 2.654-1.237 4.122v1.6c-2.812 0.073-5.598-0.551-8.11-1.815s-5.206-4.276-6.823-6.578c0 0-5.867 15.545 8.533 21.945-3.295 2.237-7.221 3.358-11.2 3.2 14.4 8 32 0 32-18.4-0.002-0.446-0.044-0.89-0.128-1.328 1.633-1.61 2.785-3.644 3.328-5.872z"></path>
</symbol>
</defs>
</svg>
